<?xml version="1.0" encoding="UTF-8" standalone="no"?>
<svg
   xmlns:dc="http://purl.org/dc/elements/1.1/"
   xmlns:cc="http://creativecommons.org/ns#"
   xmlns:rdf="http://www.w3.org/1999/02/22-rdf-syntax-ns#"
   xmlns:svg="http://www.w3.org/2000/svg"
   xmlns="http://www.w3.org/2000/svg"
   xmlns:sodipodi="http://sodipodi.sourceforge.net/DTD/sodipodi-0.dtd"
   xmlns:inkscape="http://www.inkscape.org/namespaces/inkscape"
   sodipodi:docname="logo.svg"
   inkscape:version="1.0 (4035a4fb49, 2020-05-01)"
   id="svg8"
   version="1.1"
   viewBox="0 0 111 111"
   height="111mm"
   width="111mm">
  <defs
     id="defs2">
    <rect
       id="rect835"
       height="65.481033"
       width="132.03114"
       y="89.000755"
       x="33.408691" />
  </defs>
  <sodipodi:namedview
     inkscape:window-maximized="1"
     inkscape:window-y="-5"
     inkscape:window-x="-8"
     inkscape:window-height="1027"
     inkscape:window-width="1920"
     fit-margin-bottom="0"
     fit-margin-right="0"
     fit-margin-left="0"
     fit-margin-top="0"
     showgrid="false"
     inkscape:document-rotation="0"
     inkscape:current-layer="layer1"
     inkscape:document-units="mm"
     inkscape:cy="399.88861"
     inkscape:cx="-97.933114"
     inkscape:zoom="0.49497475"
     inkscape:pageshadow="2"
     inkscape:pageopacity="0.0"
     borderopacity="1.0"
     bordercolor="#666666"
     pagecolor="#ffffff"
     id="base" />
  <metadata
     id="metadata5">
    <rdf:RDF>
      <cc:Work
         rdf:about="">
        <dc:format>image/svg+xml</dc:format>
        <dc:type
           rdf:resource="http://purl.org/dc/dcmitype/StillImage" />
        <dc:title></dc:title>
      </cc:Work>
    </rdf:RDF>
  </metadata>
  <g
     id="layer1"
     inkscape:groupmode="layer"
     inkscape:label="Layer 1">
    <text
       style="font-style:normal;font-weight:normal;font-size:10.5833px;line-height:1.25;font-family:sans-serif;letter-spacing:0px;word-spacing:0px;white-space:pre;shape-inside:url(#rect835);fill:#000000;fill-opacity:1;stroke:none;"
       id="text833"
       xml:space="preserve" />
    <g
       transform="translate(0.50021,0.499955)"
       id="g930">
      <circle
         style="fill:#ffe716;stroke-width:4.30413;stroke-linecap:round;stroke-linejoin:round"
         id="path839"
         cx="50"
         cy="50"
         r="50" />
      <circle
         r="50"
         cy="55"
         cx="55"
         id="path839-8"
         style="fill:#ffcc1f;fill-opacity:1;stroke-width:4.30412;stroke-linecap:round;stroke-linejoin:round" />
      <path
         id="path839-3-2"
         style="fill:#ff9d16;fill-opacity:1;stroke-width:4.30411;stroke-linecap:round;stroke-linejoin:round"
         d="M 59.999532,10 A 50,50 0 0 0 10,60.00005 50,50 0 0 0 59.999532,110.00009 50,50 0 0 0 109.99958,60.00005 50,50 0 0 0 59.999532,10 Z m 28.339355,21.4359 c 0.92863,-0.0159 1.83557,0.099 2.72076,0.34468 2.82797,0.77822 4.9806,2.44695 6.45801,5.00589 0.94144,1.63063 1.42386,3.40771 1.44746,5.33146 0.027,1.91102 -0.50923,3.72239 -1.60921,5.43378 -1.10464,1.70332 -2.76687,3.19559 -4.98677,4.47724 l -8.90024,5.13871 -10.66808,-18.47794 9.0935,-5.25033 c 2.25321,-1.30088 4.40158,-1.96861 6.44457,-2.00349 z m -18.04438,8.70076 2.67736,4.63796 -7.168039,4.13825 1.321369,2.28874 4.98832,-2.88044 2.67788,4.63796 -4.98884,2.87993 1.31413,2.27634 7.16855,-4.13824 2.67736,4.63744 -15.341702,8.85734 -10.668081,-18.47742 z m 16.969,0.0315 c -0.50321,0.0241 -1.06513,0.21533 -1.68569,0.57361 l -0.5209,0.30076 2.50269,4.33461 0.20567,-0.11885 c 0.98483,-0.56859 1.59745,-1.1482 1.83762,-1.73891 0.24357,-0.60344 0.13943,-1.29644 -0.31265,-2.07946 -0.51266,-0.88797 -1.18808,-1.31198 -2.02674,-1.27176 z m -34.792713,10.25932 2.677356,4.63744 -7.168038,4.13877 1.32085,2.28875 4.988843,-2.88045 2.677356,4.63745 -4.988328,2.88044 1.314133,2.27635 7.168039,-4.13877 2.677871,4.63745 -15.3417,8.85785 -10.668082,-18.47794 z m -17.363281,11.28407 1.328084,6.99854 c -2.371254,-1.03115 -4.420446,-1.04799 -6.147945,-0.0506 -0.960607,0.55461 -1.231292,1.19534 -0.811837,1.92185 0.130492,0.22603 0.41262,0.36984 0.84646,0.4315 0.441899,0.057 1.449046,-0.0349 3.021521,-0.27544 1.734245,-0.2586 3.113788,-0.37705 4.13825,-0.35501 1.027866,0.009 1.936398,0.2595 2.72593,0.75085 0.789541,0.49132 1.457169,1.20941 2.002462,2.15388 1.141841,1.97773 1.262499,3.92089 0.362252,5.8291 -0.904907,1.90013 -2.814199,3.69136 -5.728333,5.37383 -3.269321,1.88755 -6.354593,3.0499 -9.255765,3.48713 l -1.567346,-7.32875 c 1.103198,0.56854 2.236001,0.87178 3.399276,0.91054 1.171345,0.0341 2.152912,-0.17684 2.944006,-0.63356 0.387471,-0.22371 0.651949,-0.51101 0.79375,-0.86196 0.149878,-0.35561 0.140941,-0.67884 -0.02687,-0.96945 -0.158462,-0.27446 -0.439018,-0.46217 -0.841809,-0.56327 -0.394722,-0.10577 -1.265105,-0.0663 -2.611213,0.11885 -1.213199,0.17305 -2.250231,0.26049 -3.110402,0.262 -0.864849,-0.007 -1.735682,-0.21959 -2.61276,-0.63872 -0.877081,-0.41925 -1.620851,-1.15737 -2.23139,-2.21485 -1.183794,-2.05039 -1.329357,-4.02736 -0.437182,-5.9309 0.892181,-1.90355 2.79508,-3.69704 5.709211,-5.37952 2.663889,-1.53799 5.36793,-2.54975 8.111651,-3.03599 z" />
    </g>
  </g>
</svg>
